<svg width="92" height="134" viewBox="0 0 92 134" fill="none" xmlns="http://www.w3.org/2000/svg">
<path d="M2.7 134C1.03333 134 0.2 133.167 0.2 131.5V38.8C0.2 37.7333 0.533334 36.7333 1.2 35.8L24.8 2.19999C25.5333 1.19999 26.6 0.699994 28 0.699994H63.8C65.2667 0.699994 66.3333 1.19999 67 2.19999L90.8 35.8C91.4667 36.7333 91.8 37.7333 91.8 38.8V131.5C91.8 133.167 90.9667 134 89.3 134H52.7C51.0333 134 50.2 133.167 50.2 131.5V94H41.8V131.5C41.8 133.167 40.9667 134 39.3 134H2.7ZM46 59.3C48.8667 59.3 51.2 58.4 53 56.6C54.8 54.8 55.7 52.5 55.7 49.7C55.7 46.8333 54.8 44.5 53 42.7C51.2 40.9 48.8667 40 46 40C43.1333 40 40.8 40.9 39 42.7C37.2 44.5 36.3 46.8333 36.3 49.7C36.3 52.5 37.2 54.8 39 56.6C40.8 58.4 43.1333 59.3 46 59.3Z" fill="#9D9D6A"/>
</svg>
